# xmcd
#
# Track frame offsets:
#	150
#	17585
#	34626
#	50139
#	61131
#	78880
#	93804
#	108950
#	124148
#	138038
#	150430
#	172475
#
# Disc length: 2518 seconds
#
# Revision: 1
# Processed by: cddbd v1.5.2PL0 Copyright (c) Steve Scherf et al.
# Submitted via: audiograbber 1.83.01
#
DISCID=8e09d40c
DTITLE=Geoff Achison - Acho Solo
DYEAR=2007
DGENRE=Blues
TTITLE0=Sleepwalkin'
TTITLE1=We Can Work It Out
TTITLE2=Queen Bee/Lovin' In My Baby's Eyes
TTITLE3=The GlovesTrack  4
TTITLE4=Apparatus
TTITLE5=Mother EarthTrack  6
TTITLE6=Monica
TTITLE7=Can't Get You Out Of MY Mind
TTITLE8=Everything Must ChangeTrack  9
TTITLE9=Jorma's Ranch
TTITLE10=Superstition
TTITLE11=The Wind Cries Mary
EXTD=Australia's formost blues guitarist...check out his other releases
EXTT0=
EXTT1=
EXTT2=
EXTT3=
EXTT4=
EXTT5=
EXTT6=
EXTT7=
EXTT8=
EXTT9=
EXTT10=
EXTT11=
PLAYORDER=
